<svg width="36" height="36" viewBox="0 0 36 36" fill="none" xmlns="http://www.w3.org/2000/svg">
    <path d="M25.3004 32H11.9714V4H20.86V10.9981C20.86 11.2288 20.9538 11.4518 21.1217 11.6171C21.2896 11.7825 21.5161 11.8748 21.7505 11.8748L23.5274 9.24856L25.3044 11.8748C25.5387 11.8748 25.7652 11.7825 25.9331 11.6171C26.101 11.4518 26.1948 11.2288 26.1948 10.9981V4H28.8621C29.8424 4 30.6391 4.7844 30.6391 5.74952V26.7476C30.6352 29.6506 28.2451 32 25.3004 32Z"
          fill="#91929e"/>
    <path d="M5.75 26.7476V5.74952C5.75 4.7844 6.54669 4 7.52694 4H10.1943V31.9192C7.62848 31.4963 5.75 29.3084 5.75 26.7476Z"
          fill="#91929e"/>
</svg>
