<svg width="64" height="64" viewBox="0 0 64 64" fill="none" xmlns="http://www.w3.org/2000/svg">
<path fill-rule="evenodd" clip-rule="evenodd" d="M25.1213 0.87868C23.9497 -0.292893 22.0502 -0.292893 20.8786 0.87868C19.7071 2.05025 19.7071 3.94975 20.8786 5.12132L23.7573 8.00001H13C5.8203 8.00001 0 13.8203 0 21V28C0 30.2209 1.2066 32.1599 3 33.1973V49C3 57.2843 9.71573 64 18 64H46C54.2843 64 61 57.2843 61 49V46C61 44.3432 59.6569 43 58 43C56.3431 43 55 44.3432 55 46V49C55 53.9706 50.9706 58 46 58H18C13.0294 58 9 53.9706 9 49V34H58C61.3137 34 64 31.3137 64 28V21C64 13.8203 58.1797 8.00001 51 8.00001H40.7277L43.6064 5.12132C44.778 3.94975 44.778 2.05025 43.6064 0.87868C42.4348 -0.292893 40.5353 -0.292894 39.3638 0.87868L32.2425 7.99991L25.1213 0.87868ZM58 28H6V21C6 17.134 9.13401 14 13 14H51C54.866 14 58 17.134 58 21V28Z" fill="url(#paint0_linear_752_465)"/>
<defs>
<linearGradient id="paint0_linear_752_465" x1="32.0011" y1="0.564911" x2="32.0011" y2="113.115" gradientUnits="userSpaceOnUse">
<stop offset="0.1385" stop-color="#03D1CF" stop-opacity="0.988"/>
<stop offset="1" stop-color="#4E09F8"/>
</linearGradient>
</defs>
</svg>
