<svg width="64" height="64" viewBox="0 0 64 64" fill="none" xmlns="http://www.w3.org/2000/svg">
<path fill-rule="evenodd" clip-rule="evenodd" d="M32 6C17.6406 6 6 17.6406 6 32C6 33.6569 4.65685 35 3 35C1.34315 35 0 33.6569 0 32C0 14.3269 14.3269 0 32 0C49.6731 0 64 14.3269 64 32C64 49.6731 49.6731 64 32 64C23.1286 64 15.0957 60.3861 9.3028 54.5574C8.13483 53.3823 8.14067 51.4828 9.31583 50.3148C10.491 49.1468 12.3905 49.1527 13.5585 50.3278C18.2713 55.0697 24.7906 58 32 58C46.3594 58 58 46.3594 58 32C58 17.6406 46.3594 6 32 6Z" fill="url(#paint0_linear_752_446)"/>
<path fill-rule="evenodd" clip-rule="evenodd" d="M30 16C30 14.3431 31.3431 13 33 13C34.6569 13 36 14.3431 36 16V19H41C42.6569 19 44 20.3431 44 22C44 23.6569 42.6569 25 41 25H27V29H38C41.3137 29 44 31.6863 44 35V39C44 42.3137 41.3137 45 38 45H36V48C36 49.6569 34.6569 51 33 51C31.3431 51 30 49.6569 30 48V45H24C22.3431 45 21 43.6569 21 42C21 40.3431 22.3431 39 24 39H38V35H27C23.6863 35 21 32.3137 21 29V25C21 21.6863 23.6863 19 27 19H30V16Z" fill="url(#paint1_linear_752_446)"/>
<defs>
<linearGradient id="paint0_linear_752_446" x1="32.0011" y1="0.564911" x2="32.0011" y2="113.115" gradientUnits="userSpaceOnUse">
<stop offset="0.1385" stop-color="#03D1CF" stop-opacity="0.988"/>
<stop offset="1" stop-color="#4E09F8"/>
</linearGradient>
<linearGradient id="paint1_linear_752_446" x1="32.5004" y1="13.3354" x2="32.5004" y2="80.1621" gradientUnits="userSpaceOnUse">
<stop offset="0.1385" stop-color="#03D1CF" stop-opacity="0.988"/>
<stop offset="1" stop-color="#4E09F8"/>
</linearGradient>
</defs>
</svg>
