<svg width="32" height="32" viewBox="0 0 32 32" fill="none" xmlns="http://www.w3.org/2000/svg">
<path d="M1.73665 23.2821L1.43603 22.781H5.64469L5.7449 22.8812C9.55274 28.4928 17.2686 29.9959 22.8802 26.0878C26.5878 23.5827 28.5919 19.2738 28.2913 14.8647H20.7758L22.9804 21.0775L20.2748 24.7851L15.4649 11.1571H31.2975L31.3977 11.3575C31.5981 11.9587 31.6983 12.56 31.7985 13.1612C31.9989 14.0631 31.9989 14.9649 31.9989 15.8668C31.9989 23.6829 26.3874 30.3967 18.6715 31.6994C17.8699 31.8998 16.968 32 16.0661 32C9.95356 32 4.44222 28.593 1.73665 23.2821ZM4.44222 20.6767H0.734583L0.634377 20.4763C0.433965 19.875 0.333758 19.2738 0.233552 18.6726C-1.26954 9.95462 4.64263 1.6375 13.3606 0.23461C20.2748 -0.967865 27.0888 2.53936 30.2954 8.75214L30.4958 9.25318H26.2872V8.95256C22.3791 3.34101 14.7635 1.93812 9.05171 5.74596C5.44428 8.25111 3.33995 12.4598 3.74077 16.8689H11.2562L9.05171 10.7563L11.7573 7.04864L16.5672 20.6767H4.44222Z" fill="url(#paint0_linear_754_654)"/>
<defs>
<linearGradient id="paint0_linear_754_654" x1="25.4413" y1="2.55568" x2="7.00835" y2="28.9413" gradientUnits="userSpaceOnUse">
<stop stop-color="#03D1CF" stop-opacity="0.988"/>
<stop offset="1" stop-color="#4E09F8"/>
</linearGradient>
</defs>
</svg>
