<svg width="32" height="32" viewBox="0 0 32 32" fill="none" xmlns="http://www.w3.org/2000/svg">
<path d="M16 32C24.8 32 32 24.8 32 16C32 7.2 24.8 0 16 0C7.2 0 0 7.2 0 16C0 24.8 7.12 32 16 32C16 32 15.92 32 16 32Z" fill="#2775CA"/>
<path d="M20.3999 18.56C20.3999 16.24 18.9599 15.44 16.1599 15.12C14.1599 14.88 13.7599 14.32 13.7599 13.36C13.7599 12.4 14.3999 11.84 15.7599 11.84C16.9599 11.84 17.5999 12.24 17.9999 13.28C18.0799 13.44 18.2399 13.6 18.4799 13.6H19.5199C19.7599 13.6 19.9999 13.44 19.9999 13.12V13.04C19.7599 11.52 18.4799 10.4 16.9599 10.32V8.71997C16.9599 8.47997 16.7199 8.23997 16.3999 8.15997H15.3599C15.1199 8.15997 14.8799 8.39997 14.7999 8.71997V10.24C12.7999 10.48 11.5199 11.84 11.5199 13.52C11.5199 15.76 12.8799 16.56 15.6799 16.96C17.5199 17.28 18.1599 17.68 18.1599 18.8C18.1599 19.92 17.1999 20.64 15.9199 20.64C14.1599 20.64 13.5999 19.92 13.3599 18.88C13.2799 18.64 13.1199 18.48 12.8799 18.48H11.7599C11.5199 18.48 11.2799 18.64 11.2799 18.96V19.04C11.5199 20.72 12.6399 21.92 14.7999 22.24V23.84C14.7999 24.08 15.0399 24.32 15.3599 24.4H16.3199C16.5599 24.4 16.7999 24.16 16.8799 23.84V22.24C19.0399 21.76 20.3999 20.32 20.3999 18.56Z" fill="white"/>
<path d="M12.6399 25.52C7.43994 23.6 4.79994 17.92 6.71994 12.72C7.75994 9.99998 9.91994 7.75998 12.6399 6.79998C12.8799 6.71998 13.0399 6.39998 13.0399 6.15998V5.19998C13.0399 4.95998 12.8799 4.71998 12.6399 4.63998C12.5599 4.63998 12.4799 4.63998 12.3999 4.71998C6.07994 6.71998 2.55994 13.52 4.63994 19.76C5.83994 23.44 8.71994 26.4 12.3999 27.52C12.5599 27.6 12.8799 27.6 12.9599 27.36C12.9599 27.36 12.9599 27.28 13.0399 27.28C13.1199 27.2 13.1199 27.12 13.1199 27.04V26.08C12.9599 25.92 12.7999 25.68 12.6399 25.52ZM19.6799 4.71998C19.5199 4.63998 19.1999 4.63998 19.1199 4.87998C19.1199 4.87998 19.1199 4.95998 19.0399 4.95998C18.9599 5.03998 18.9599 5.11998 18.9599 5.19998V6.15998C18.9599 6.39998 19.1199 6.63998 19.3599 6.79998C24.5599 8.71998 27.1999 14.4 25.2799 19.6C24.2399 22.32 22.0799 24.56 19.3599 25.52C19.1199 25.6 18.9599 25.92 18.9599 26.16V27.2C18.9599 27.44 19.1199 27.68 19.3599 27.76C19.4399 27.76 19.5199 27.76 19.5999 27.68C25.9199 25.6 29.4399 18.88 27.3599 12.48C26.2399 8.79998 23.3599 5.91998 19.6799 4.71998Z" fill="white"/>
</svg>
