<svg width="32" height="33" viewBox="0 0 32 33" fill="none" xmlns="http://www.w3.org/2000/svg">
<path d="M31.5117 19.8439C29.3528 28.4039 20.7175 33.6039 12.1621 31.5239C3.52671 29.3639 -1.67049 20.7239 0.488346 12.1639C2.64718 3.60389 11.2825 -1.67611 19.8379 0.483891C28.4733 2.64389 33.6705 11.2839 31.5117 19.8439Z" fill="#50AF95"/>
<path d="M17.9989 18.1639C17.9189 18.1639 17.2793 18.2439 16 18.2439C14.9605 18.2439 14.2409 18.2439 14.001 18.1639C10.0831 18.0039 7.12473 17.2839 7.12473 16.4839C7.12473 15.6839 10.0831 14.9639 14.001 14.8039V17.4439C14.2409 17.4439 14.9605 17.5239 16 17.5239C17.1993 17.5239 17.839 17.4439 17.9189 17.4439V14.7239C21.8368 14.8839 24.7952 15.6039 24.7952 16.4039C24.7952 17.2039 21.9168 18.0039 17.9989 18.1639ZM17.9989 14.4839V12.0839H23.5159V8.40389H8.56396V12.0839H14.081V14.4839C9.6034 14.7239 6.24521 15.6039 6.24521 16.6439C6.24521 17.6839 9.6034 18.5639 14.081 18.8039V26.4839H18.0788V18.8039C22.5564 18.5639 25.8347 17.6839 25.8347 16.6439C25.8347 15.6039 22.4765 14.7239 17.9989 14.4839Z" fill="white"/>
</svg>
