<svg width="32" height="32" viewBox="0 0 32 32" fill="none" xmlns="http://www.w3.org/2000/svg">
<path d="M31.5078 19.8415C29.3493 28.4004 20.7149 33.5998 12.1606 31.5201C3.52628 29.3603 -1.67029 20.7214 0.488287 12.1624C2.64686 3.60345 11.2812 -1.67591 19.8355 0.483833C28.4698 2.64357 33.6664 11.2825 31.5078 19.8415Z" fill="#F7931A"/>
<path d="M22.7936 13.7622C23.1134 11.6825 21.5144 10.5626 19.3559 9.84268L20.0754 7.04302L18.3965 6.64307L17.7569 9.36274C17.2772 9.28275 16.8775 9.12277 16.3978 9.04278L17.1173 6.32311L15.4384 5.92316L14.7189 8.72282C14.3192 8.64283 13.9994 8.56284 13.5997 8.48285L11.2012 7.84292L10.7216 9.6827C10.7216 9.6827 12.0007 10.0027 11.9208 10.0027C12.4004 10.0827 12.8002 10.4826 12.7202 10.9625L11.9208 14.1622C12.0007 14.1622 12.0007 14.1622 12.0807 14.2421L12.0007 14.1622L10.8815 18.6416C10.8015 18.9616 10.4018 19.1216 10.082 19.0416L8.88277 18.7216L8.00335 20.6414L10.2419 21.2013C10.6416 21.2813 11.0413 21.4413 11.4411 21.5213L10.7216 24.3209L12.4005 24.7209L13.12 21.9212C13.5997 22.0812 13.9994 22.1612 14.4791 22.2412L13.7596 25.0408L15.4384 25.4408L16.158 22.6411C19.0361 23.2011 21.2746 22.9611 22.154 20.3214C22.8735 18.2417 22.154 16.9618 20.5551 16.2419C21.8342 16.0019 22.7136 15.0421 22.7936 13.7622ZM18.9561 19.2015C18.3965 21.2813 14.8788 20.1614 13.6796 19.9215L14.639 16.1619C15.7582 16.4819 19.5158 17.0418 18.9561 19.2015ZM19.4358 13.7622C18.9561 15.682 15.9981 14.7221 15.0387 14.4821L15.9181 11.1225C16.8775 11.2825 19.9954 11.7624 19.4358 13.7622Z" fill="white"/>
</svg>
