<svg width="32" height="32" viewBox="0 0 32 32" fill="none" xmlns="http://www.w3.org/2000/svg">
<path d="M16 32C24.8366 32 32 24.8366 32 16C32 7.16344 24.8366 0 16 0C7.16344 0 0 7.16344 0 16C0 24.8366 7.16344 32 16 32Z" fill="#627EEA"/>
<path d="M16.1241 2.72867L15.9504 3.34882V20.986L16.1241 21.1597L24.3101 16.3225L16.1241 2.72867Z" fill="#C0CBF6"/>
<path d="M16.124 2.72867L7.93799 16.3225L16.124 21.1597V12.6015V2.72867Z" fill="white"/>
<path d="M16.124 22.6977L16.0248 22.8217V29.0977L16.124 29.3954L24.3101 17.8605L16.124 22.6977Z" fill="#C0CBF6"/>
<path d="M16.124 29.3954V22.6977L7.93799 17.8605L16.124 29.3954Z" fill="white"/>
<path d="M16.124 21.1597L24.3101 16.3225L16.124 12.6015V21.1597Z" fill="#8197EE"/>
<path d="M7.93799 16.3225L16.124 21.1597V12.6015L7.93799 16.3225Z" fill="#C0CBF6"/>
</svg>
